<?xml version="1.0" encoding="utf-8"?>
<svg xmlns="http://www.w3.org/2000/svg" xmlns:xlink="http://www.w3.org/1999/xlink" x="0px" y="0px" width="400px"
	 height="400px" viewBox="0 0 400 400" style="enable-background:new 0 0 400 400;" xml:space="preserve">
<style type="text/css">
	.st0{fill:#001A72;}
	.st1{fill:#F2CD00;}
	.st2{fill:#41B6E6;}
	.st3{fill:#009A44;}
</style>
<g id="Circle">
	<g>
		<circle class="st0" cx="200" cy="200" r="190"/>
	</g>
</g>
<g>
	<g>
		<g>
			<path class="st1" d="M131.2,350c-11.2,0-20.2-9.1-20.2-20.2V70.2c0-11.2,9.1-20.2,20.2-20.2c11.2,0,20.2,9.1,20.2,20.2v259.5
				C151.5,340.9,142.4,350,131.2,350z"/>
		</g>
		<path class="st2" d="M286.1,319.2L167.4,95.3c-2-3.8-7.7-2.3-7.7,1.9v60.4c0,6.3,1.6,12.5,4.5,18.1l86.7,163.6
			c3.6,6.8,10.6,10.7,17.9,10.7c3.8,0,7.7-1.1,11.1-3.3C288.8,340.8,291.1,328.6,286.1,319.2z"/>
		<path class="st3" d="M289,290.7V71.4c0-10.6-7.6-20.2-18.2-21.3c-12.1-1.2-22.3,8.3-22.3,20.1v150.9c0,6.3,1.6,12.5,4.5,18.1
			l28.3,53.3C283.3,296.4,289,294.9,289,290.7z"/>
	</g>
</g>
</svg>
