<svg width="1000" height="1001" viewBox="0 0 1000 1001" fill="none" xmlns="http://www.w3.org/2000/svg">
<rect y="0.159851" width="1000" height="1000" rx="500" fill="#FFE1C5"/>
<path d="M673.174 198.145C642.292 198.58 624.68 201.283 598.812 209.535C547.687 225.713 546.429 226.746 553.792 245.973C559.505 260.412 566.559 267.08 573.904 264.91C576.689 264.028 592.809 258.866 609.347 253.359C639.812 243.439 639.812 243.439 671.094 242.85C688.463 242.63 706.767 242.693 711.922 243.2C722.612 244.25 746.278 254.478 772.186 269.36C781.663 274.917 794.519 281.384 800.459 283.702C813.638 288.852 814.668 288.182 823.172 272.249C832.875 253.928 831.412 247.231 816.706 241.931C802.019 236.441 795.945 233.531 784.136 226.203C777.601 222.091 763.484 214.729 752.786 209.823C735.442 201.951 731.317 200.775 715.263 199.39C705.317 198.605 686.478 198.103 673.174 198.145Z" fill="black"/>
<path d="M273.408 194.33C254.056 195.127 228.792 199.198 214.638 203.975C184.727 214.142 144.575 240.265 134.543 256.048C127.5 266.921 127.35 268.448 132.124 280.674C138.585 297.307 146.296 297.294 169.571 280.113C214.482 246.748 243.764 237.097 294.233 239.358C315.154 240.257 315.517 240.486 326.599 247.357C341.102 256.684 351.242 259.416 358.146 255.853C364.648 252.445 374.639 235.116 375.539 225.953C376.158 219.653 375.526 218.241 370.444 215.044C366.967 213.16 361.333 211.643 357.669 211.668C352.649 211.753 348.008 209.948 340.212 204.942C330.084 198.164 328.766 197.842 307.367 195.932C295.13 194.922 279.974 194.204 273.408 194.33Z" fill="black"/>
<path d="M467.842 267.404C466.221 268.208 462.881 268.844 460.591 268.619C454.291 268 449.779 274.688 448.635 286.333C448.091 291.869 444.165 306.324 439.719 318.223C435.464 330.141 427.908 354.07 422.956 371.123C412.654 407.31 393.933 464.45 370.666 530.588C361.796 556.122 351.882 584.445 349.091 593.23C342.218 614.142 325.903 672.29 325.359 677.826C324.609 685.462 334.456 706.86 341.204 712.728C353.476 723.185 361.722 723.61 447.548 719.129C464.591 718.298 485.49 717.461 494.174 717.35C516.2 716.816 548.36 705.327 554.089 696.06C556.164 692.602 558.905 688.246 559.837 686.603C560.979 684.787 562.268 679.517 562.737 674.745C563.506 666.918 563.027 665.907 557.716 663.072C549.1 658.563 534.12 659.983 515.694 667.038C504.879 671.18 496.426 672.855 487.742 672.965C480.794 673.054 464.343 673.75 451.155 674.574C400.752 677.524 368.915 677.865 367.041 675.368C366.352 674.53 378.966 628.547 384.738 610.996C386.997 603.701 396.683 575.741 406.294 548.545C429.58 482.216 443.327 440.392 460.352 384.82C468.057 359.364 477.53 329.648 481.1 318.82C484.861 308.01 488.386 293.708 489.061 286.836C490.224 275 490.109 274.217 484.7 270.409C478.566 266.144 472.514 264.972 467.842 267.404Z" fill="black"/>
<path d="M757.645 338.86C753.887 339.84 749.577 342.501 748.169 345.061C746.571 347.602 742.174 355.073 738.044 361.798C729.918 375.841 712.116 390.282 695.292 396.725C684.268 401.038 664.492 400.252 651.313 395.102C644.438 392.499 627.406 377.526 620.804 368.204C618.948 365.516 614.532 361.42 610.921 358.944C605.322 355.118 603.24 354.72 594.29 355.576C587.096 356.218 583.09 357.752 580.69 360.6C577.605 364.537 577.683 365.701 582.363 378.882C587.447 393.838 596.323 405.503 616.166 423.258C631.746 437.317 641.983 441.022 670.884 443.091C693.848 444.769 694.822 444.672 710.043 438.843C740.467 427.377 762.017 406.172 778.334 371.54C786.891 353.106 787.586 346.043 780.516 341.493C774.363 337.419 767.108 336.706 757.645 338.86Z" fill="black"/>
<path d="M356.016 336.404C355.024 336.692 351.704 337.137 348.784 337.428C345.273 337.854 340.47 341.622 333.745 349.25C324.182 360.26 307.425 371.913 292.795 377.607C280.359 382.553 260.13 384.42 247.09 381.789C232.331 378.99 222.337 372.804 211.874 359.633C202.942 348.54 192.926 340.617 186.627 339.998C178.418 339.191 167.086 342.704 164.765 346.716C162.919 349.811 163.154 353.304 166.3 362.479C173.205 382.432 199.709 410.864 220.339 420.601C241.543 430.394 284.639 429.232 311.971 417.847C345.12 404.143 376.615 371.965 378.829 349.439C379.41 343.521 378.624 341.709 374.975 339.616C370.6 337.066 360.557 335.308 356.016 336.404Z" fill="black"/>
<path d="M722.606 717.051C717.473 718.282 713.07 721.897 705.414 731.167C685.756 754.678 640.82 784.378 598.02 802.145C563.859 816.328 500.892 827.488 471.284 824.772C451.43 822.821 440.63 824.843 438.521 830.611C436.394 836.57 442.552 854.329 449.149 861.724C453.644 866.984 455.515 867.553 470.024 868.979C491.977 871.136 548.157 864.321 581.41 855.445C598.81 850.987 632.569 836.957 653.298 826.08C678.508 812.752 717.946 782.126 731.317 765.708C737.259 758.196 743.085 749.902 743.958 746.904C744.812 744.097 746.43 741.365 747.25 740.867C748.26 740.388 749.493 735.691 749.999 730.536C750.825 722.137 750.383 720.744 746.143 718.786C740.087 715.685 730.905 714.975 722.606 717.051Z" fill="black"/>
</svg>
